<svg width="40" height="40" viewBox="0 0 40 40" fill="none" xmlns="http://www.w3.org/2000/svg">
<mask id="mask0_754_5724" style="mask-type:alpha" maskUnits="userSpaceOnUse" x="0" y="0" width="40" height="40">
<rect width="40" height="40" fill="#D9D9D9"/>
</mask>
<g mask="url(#mask0_754_5724)">
<path d="M9.41659 29.0833C11.0555 27.9813 12.736 27.1365 14.4583 26.5487C16.1805 25.9606 18.0277 25.6666 19.9999 25.6666C21.9721 25.6666 23.8239 25.9606 25.5553 26.5487C27.287 27.1365 28.9723 27.9813 30.6112 29.0833C31.7501 27.7035 32.581 26.2637 33.1041 24.7637C33.6271 23.2637 33.8887 21.6758 33.8887 19.9999C33.8887 16.0833 32.5531 12.7892 29.882 10.1178C27.2106 7.44673 23.9166 6.11117 19.9999 6.11117C16.0833 6.11117 12.7892 7.44673 10.1178 10.1178C7.44672 12.7892 6.11117 16.0833 6.11117 19.9999C6.11117 21.6758 6.37728 23.2637 6.9095 24.7637C7.442 26.2637 8.2777 27.7035 9.41659 29.0833ZM19.9949 21.3887C18.378 21.3887 17.0162 20.8338 15.9095 19.7241C14.8031 18.6141 14.2499 17.2506 14.2499 15.6337C14.2499 14.0167 14.8049 12.6551 15.9149 11.5487C17.0246 10.442 18.388 9.88867 20.0049 9.88867C21.6219 9.88867 22.9837 10.4437 24.0903 11.5537C25.1967 12.6637 25.7499 14.0271 25.7499 15.6441C25.7499 17.261 25.1949 18.6227 24.0849 19.7291C22.9752 20.8355 21.6119 21.3887 19.9949 21.3887ZM19.9887 36.6666C17.6803 36.6666 15.5112 36.2291 13.4812 35.3541C11.4509 34.4791 9.68492 33.287 8.18325 31.7778C6.68131 30.2684 5.49756 28.5013 4.632 26.4766C3.76617 24.4519 3.33325 22.2884 3.33325 19.9862C3.33325 17.6839 3.77075 15.5203 4.64575 13.4953C5.52075 11.4706 6.71284 9.70825 8.222 8.20825C9.73145 6.70825 11.4985 5.52075 13.5233 4.64575C15.548 3.77075 17.7114 3.33325 20.0137 3.33325C22.3159 3.33325 24.4795 3.77075 26.5045 4.64575C28.5292 5.52075 30.2916 6.70825 31.7916 8.20825C33.2916 9.70825 34.4791 11.4721 35.3541 13.4999C36.2291 15.5277 36.6666 17.6919 36.6666 19.9924C36.6666 22.2933 36.2291 24.4553 35.3541 26.4787C34.4791 28.502 33.2916 30.2684 31.7916 31.7778C30.2916 33.287 28.5264 34.4791 26.4962 35.3541C24.4662 36.2291 22.297 36.6666 19.9887 36.6666Z" fill="#C1C1C1"/>
</g>
</svg>
