<svg width="24" height="24" viewBox="0 0 24 24" fill="none" xmlns="http://www.w3.org/2000/svg">
<circle cx="12" cy="12" r="11" fill="#059669" stroke="#059669" stroke-width="2"/>
<ellipse cx="8.8" cy="9.9998" rx="0.8" ry="1.2" fill="white" stroke="white"/>
<ellipse cx="15.1999" cy="9.9998" rx="0.8" ry="1.2" fill="white" stroke="white"/>
<path d="M14.4617 15.7998C14.3991 15.8541 14.3303 15.9077 14.255 15.9605C13.7187 16.3359 12.9246 16.5998 12 16.5998C11.0754 16.5998 10.2813 16.3359 9.74504 15.9605C9.66972 15.9077 9.60091 15.8541 9.53825 15.7998H9.53991H9.54939H9.55889H9.56841H9.57796H9.58753H9.59712H9.60674H9.61637H9.62603H9.63571H9.64542H9.65514H9.66489H9.67466H9.68445H9.69426H9.7041H9.71395H9.72383H9.73373H9.74365H9.7536H9.76356H9.77355H9.78355H9.79358H9.80363H9.8137H9.82379H9.83391H9.84404H9.85419H9.86437H9.87457H9.88478H9.89502H9.90528H9.91556H9.92585H9.93617H9.94651H9.95687H9.96725H9.97765H9.98807H9.99851H10.009H10.0195H10.03H10.0405H10.051H10.0616H10.0721H10.0827H10.0934H10.104H10.1147H10.1253H10.136H10.1467H10.1575H10.1682H10.179H10.1898H10.2006H10.2114H10.2223H10.2331H10.244H10.2549H10.2658H10.2768H10.2877H10.2987H10.3097H10.3207H10.3317H10.3428H10.3539H10.3649H10.376H10.3872H10.3983H10.4094H10.4206H10.4318H10.443H10.4542H10.4655H10.4767H10.488H10.4993H10.5106H10.522H10.5333H10.5447H10.556H10.5674H10.5788H10.5903H10.6017H10.6132H10.6247H10.6362H10.6477H10.6592H10.6707H10.6823H10.6939H10.7055H10.7171H10.7287H10.7403H10.752H10.7637H10.7754H10.7871H10.7988H10.8105H10.8223H10.834H10.8458H10.8576H10.8694H10.8813H10.8931H10.905H10.9168H10.9287H10.9406H10.9525H10.9645H10.9764H10.9884H11.0003H11.0123H11.0243H11.0363H11.0484H11.0604H11.0725H11.0846H11.0967H11.1088H11.1209H11.133H11.1451H11.1573H11.1695H11.1817H11.1939H11.2061H11.2183H11.2305H11.2428H11.2551H11.2673H11.2796H11.2919H11.3043H11.3166H11.3289H11.3413H11.3537H11.366H11.3784H11.3908H11.4033H11.4157H11.4281H11.4406H11.4531H11.4655H11.478H11.4905H11.5031H11.5156H11.5281H11.5407H11.5533H11.5658H11.5784H11.591H11.6036H11.6163H11.6289H11.6415H11.6542H11.6669H11.6795H11.6922H11.7049H11.7177H11.7304H11.7431H11.7559H11.7686H11.7814H11.7942H11.8069H11.8197H11.8326H11.8454H11.8582H11.871H11.8839H11.8968H11.9096H11.9225H11.9354H11.9483H11.9612H11.9741H11.9871H12H12.0129H12.0259H12.0388H12.0517H12.0646H12.0775H12.0904H12.1032H12.1161H12.129H12.1418H12.1546H12.1674H12.1803H12.1931H12.2058H12.2186H12.2314H12.2441H12.2569H12.2696H12.2823H12.2951H12.3078H12.3205H12.3331H12.3458H12.3585H12.3711H12.3837H12.3964H12.409H12.4216H12.4342H12.4467H12.4593H12.4719H12.4844H12.4969H12.5095H12.522H12.5345H12.5469H12.5594H12.5719H12.5843H12.5967H12.6092H12.6216H12.634H12.6463H12.6587H12.6711H12.6834H12.6957H12.7081H12.7204H12.7327H12.7449H12.7572H12.7695H12.7817H12.7939H12.8061H12.8183H12.8305H12.8427H12.8549H12.867H12.8791H12.8912H12.9033H12.9154H12.9275H12.9396H12.9516H12.9637H12.9757H12.9877H12.9997H13.0116H13.0236H13.0355H13.0475H13.0594H13.0713H13.0832H13.095H13.1069H13.1187H13.1306H13.1424H13.1542H13.166H13.1777H13.1895H13.2012H13.2129H13.2246H13.2363H13.248H13.2597H13.2713H13.2829H13.2945H13.3061H13.3177H13.3293H13.3408H13.3523H13.3638H13.3753H13.3868H13.3983H13.4097H13.4212H13.4326H13.444H13.4553H13.4667H13.478H13.4894H13.5007H13.512H13.5233H13.5345H13.5458H13.557H13.5682H13.5794H13.5906H13.6017H13.6128H13.624H13.6351H13.6461H13.6572H13.6683H13.6793H13.6903H13.7013H13.7123H13.7232H13.7342H13.7451H13.756H13.7669H13.7777H13.7886H13.7994H13.8102H13.821H13.8318H13.8425H13.8533H13.864H13.8747H13.8853H13.896H13.9066H13.9173H13.9279H13.9384H13.949H13.9595H13.97H13.9805H13.991H14.0015H14.0119H14.0223H14.0327H14.0431H14.0535H14.0638H14.0741H14.0844H14.0947H14.105H14.1152H14.1254H14.1356H14.1458H14.156H14.1661H14.1762H14.1863H14.1964H14.2064H14.2164H14.2265H14.2364H14.2464H14.2563H14.2663H14.2762H14.286H14.2959H14.3057H14.3156H14.3253H14.3351H14.3449H14.3546H14.3643H14.374H14.3836H14.3933H14.4029H14.4125H14.422H14.4316H14.4411H14.4506H14.4601H14.4617Z" fill="white" stroke="white" stroke-width="2"/>
</svg>
